<?xml version="1.0" encoding="UTF-8"?>
<svg width="27px" height="24px" viewBox="0 0 27 24" version="1.1" xmlns="http://www.w3.org/2000/svg" xmlns:xlink="http://www.w3.org/1999/xlink">
    <!-- Generator: Sketch 61.2 (89653) - https://sketch.com -->
    <title>icon-energy</title>
    <desc>Created with Sketch.</desc>
    <g id="Symbols" stroke="none" stroke-width="1" fill="none" fill-rule="evenodd">
        <g id="footer" transform="translate(-357.000000, -20.000000)" fill-rule="nonzero">
            <g id="Group-9">
                <g id="Group-31" transform="translate(357.000000, 17.000000)">
                    <g id="icon-energy" transform="translate(0.000000, 3.000000)">
                        <path d="M15.3053859,23.9101197 C12.6894079,23.5218171 10.3121379,21.8612714 10.2761682,19.0800151 C10.2598183,17.6972793 10.8484134,16.4471346 11.6855264,15.3137963 C12.6881089,13.9810128 13.9019892,12.8090959 15.2824961,11.8411721 C12.8463666,12.3147118 10.4102371,14.3888155 9.21669712,17.3658015 C8.11789584,16.3801034 7.55908336,14.955464 7.70596983,13.5143456 C7.92505799,11.5160082 9.43251531,10.1174877 11.4075787,9.67236045 C14.1772454,9.04097423 15.6879727,7.07420616 16.0378597,4.44132563 C16.0640195,4.2550667 16.1457688,4.0214538 16.3386972,4.02461073 C16.4011507,4.03083166 16.4608649,4.05258631 16.5120058,4.08774935 C17.7807551,4.84225588 18.4739893,6.56909719 18.8271463,7.87606666 C19.3928515,9.99121049 19.4451711,12.1347667 18.624408,14.2214982 C17.908284,16.0430474 16.7703336,17.5678451 14.9620388,18.5022967 C14.3538239,18.8179898 13.62462,18.9126978 12.911766,19.1336829 C12.6240085,19.2157631 13.160284,20.0997038 13.2387633,20.2101964 C13.5842065,20.6575773 14.0584558,20.9968509 14.6023418,21.1856881 C19.0625843,22.8178215 23.2448791,18.7043403 24.2258709,14.8213151 C24.7495901,12.7905385 24.5727872,10.650251 23.7222951,8.72528112 C22.7875322,6.467706 21.0222021,4.62287612 18.7650168,3.5447572 C16.8954251,2.60679554 14.7684179,2.25792515 12.682868,2.54716698 C10.1475385,2.85169532 7.81829088,4.05026662 6.14292298,5.91245552 C4.73978372,7.44464409 3.87149204,9.36417292 3.66101385,11.3992018 C3.53503673,12.3570323 3.5703728,13.3282299 3.76565297,14.275166 C3.78310553,14.4467582 3.66981595,14.6054828 3.49751523,14.6508408 C2.91546012,14.8339428 2.32032513,14.9665339 1.71211024,15.1275374 C1.60953428,15.1539007 1.50022388,15.1379363 1.41031474,15.0834611 C1.32040559,15.028986 1.2579802,14.9408973 1.23796423,14.8402566 C0.657079292,12.0040667 1.1477861,9.06081045 2.6211626,6.54384174 C5.60991746,1.42014258 12.0681131,-1.21589488 17.9246339,0.545672667 C20.1814704,1.23764876 22.1997091,2.51152185 23.7615348,4.22981125 C27.8228406,8.70633954 28.1792676,15.6294894 24.1768213,20.2670212 C22.2671574,22.476873 19.3765017,24.0553385 16.3288873,23.9985137 C15.986091,23.9905864 15.6441967,23.9610589 15.3053859,23.9101197 Z" id="Shape" fill="#5BD672"></path>
                        <path d="M3.61,17 L5.39,17 C6.8314632,17 8,18.1685368 8,19.61 L8,20.39 C8,21.8314632 6.8314632,23 5.39,23 L3.61,23 C2.1685368,23 1,21.8314632 1,20.39 L1,19.61 C1,18.1685368 2.1685368,17 3.61,17 Z" id="Rectangle-path" fill="#5BD672" transform="translate(4.500000, 20.000000) rotate(-16.340000) translate(-4.500000, -20.000000) "></path>
                        <path d="M3.5,21 L5.5,21 C5.77614237,21 6,21.2238576 6,21.5 C6,21.7761424 5.77614237,22 5.5,22 L3.5,22 C3.22385763,22 3,21.7761424 3,21.5 C3,21.2238576 3.22385763,21 3.5,21 Z" id="Rectangle-path" fill="#B3BDC4" transform="translate(4.500000, 21.500000) rotate(73.660000) translate(-4.500000, -21.500000) "></path>
                        <path d="M6.5,20 L8.5,20 C8.77614237,20 9,20.2238576 9,20.5 C9,20.7761424 8.77614237,21 8.5,21 L6.5,21 C6.22385763,21 6,20.7761424 6,20.5 C6,20.2238576 6.22385763,20 6.5,20 Z" id="Rectangle-path" fill="#B3BDC4" transform="translate(7.500000, 20.500000) rotate(73.660000) translate(-7.500000, -20.500000) "></path>
                    </g>
                </g>
            </g>
        </g>
    </g>
</svg>