<?xml version="1.0" encoding="UTF-8"?>
<svg width="218px" height="38px" viewBox="0 0 218 38" version="1.1" xmlns="http://www.w3.org/2000/svg" xmlns:xlink="http://www.w3.org/1999/xlink">
    <!-- Generator: Sketch 61.2 (89653) - https://sketch.com -->
    <title>Untitled-8</title>
    <desc>Created with Sketch.</desc>
    <defs>
        <linearGradient x1="49.9844934%" y1="100.178167%" x2="49.9844934%" y2="0.200269542%" id="linearGradient-1">
            <stop stop-color="#47B977" offset="0%"></stop>
            <stop stop-color="#027A60" offset="100%"></stop>
        </linearGradient>
    </defs>
    <g id="Symbols" stroke="none" stroke-width="1" fill="none" fill-rule="evenodd">
        <g id="Evercheck-logo---blue" fill-rule="nonzero">
            <g id="Untitled-8">
                <path d="M209.1,30.1 C205.8,33.4 200.4,33.4 197.1,30.1 C193.8,26.8 193.8,21.4 197.1,18.1 C198.7,16.5 200.9,15.6 203.2,15.6 L207.9,15.6 L201.8,21.7 L205.5,25.4 L217.9,13 L205.5,0.6 L201.8,4.3 L207.9,10.4 L203.3,10.4 C203.3,10.4 203.2,10.4 203.2,10.4 C199.6,10.4 196.1,11.8 193.5,14.4 C188.2,19.7 188.2,28.4 193.5,33.7 C196.2,36.4 199.7,37.7 203.2,37.7 C206.7,37.7 210.2,36.4 212.9,33.7 C215.5,31.1 216.9,27.7 216.9,24 L211.7,24 C211.6,26.4 210.7,28.5 209.1,30.1 Z" id="Shape" fill="url(#linearGradient-1)"></path>
                <path d="M20,29.4 L6.3,29.4 C6.9,31.9 8.6,33.3 11.1,33.3 C13,33.3 14.3,32.7 15.9,31.3 L19.1,34.1 C17.3,36.4 14.6,37.8 11.1,37.8 C5.2,37.8 0.8,33.6 0.8,27.6 L0.8,27.5 C0.8,21.9 4.8,17.2 10.5,17.2 C17.1,17.2 20.1,22.3 20.1,27.9 L20.1,28 C20.1,28.6 20,28.9 20,29.4 Z M10.5,21.7 C8.2,21.7 6.7,23.4 6.2,25.9 L14.6,25.9 C14.3,23.4 12.8,21.7 10.5,21.7 Z" id="Shape" fill="#0B2A5C"></path>
                <polygon id="Shape" fill="#0B2A5C" points="32.9 37.5 27.8 37.5 20 17.7 25.9 17.7 30.3 30.9 34.7 17.7 40.5 17.7"></polygon>
                <path d="M59.8,29.4 L46.1,29.4 C46.7,31.9 48.4,33.3 50.9,33.3 C52.8,33.3 54.1,32.7 55.7,31.3 L58.9,34.1 C57.1,36.4 54.4,37.8 50.9,37.8 C45,37.8 40.6,33.6 40.6,27.6 L40.6,27.5 C40.6,21.9 44.6,17.2 50.3,17.2 C56.9,17.2 59.9,22.3 59.9,27.9 L59.9,28 C59.9,28.6 59.9,28.9 59.8,29.4 Z M50.3,21.7 C48,21.7 46.5,23.4 46,25.9 L54.4,25.9 C54.1,23.4 52.7,21.7 50.3,21.7 Z" id="Shape" fill="#0B2A5C"></path>
                <path d="M74.3,23.1 C70.6,23.1 68.3,25.3 68.3,30 L68.3,37.3 L62.7,37.3 L62.7,17.6 L68.3,17.6 L68.3,21.6 C69.4,18.9 71.3,17.1 74.6,17.3 L74.6,23.1 L74.3,23.1 Z" id="Shape" fill="#0B2A5C"></path>
                <path d="M85.9,37.8 C80,37.8 75.6,33.2 75.6,27.6 L75.6,27.5 C75.6,21.9 79.9,17.2 85.9,17.2 C89.6,17.2 91.9,18.4 93.8,20.5 L90.4,24.2 C89.2,22.9 87.9,22 85.9,22 C83.1,22 81.1,24.5 81.1,27.4 L81.1,27.5 C81.1,30.5 83,32.9 86.1,32.9 C88,32.9 89.3,32.1 90.6,30.8 L93.9,34.1 C92,36.3 89.8,37.8 85.9,37.8 Z" id="Shape" fill="#0B2A5C"></path>
                <path d="M108.6,37.3 L108.6,26.3 C108.6,23.7 107.3,22.3 105.2,22.3 C103.1,22.3 101.7,23.7 101.7,26.3 L101.7,37.3 L96.1,37.3 L96.1,10.5 L101.7,10.5 L101.7,20.4 C103,18.7 104.6,17.2 107.5,17.2 C111.7,17.2 114.2,20 114.2,24.5 L114.2,37.3 L108.6,37.3 Z" id="Shape" fill="#0B2A5C"></path>
                <path d="M136.2,29.4 L122.5,29.4 C123.1,31.9 124.8,33.3 127.3,33.3 C129.2,33.3 130.5,32.7 132.1,31.3 L135.3,34.1 C133.5,36.4 130.8,37.8 127.3,37.8 C121.4,37.8 117,33.6 117,27.6 L117,27.5 C117,21.9 121,17.2 126.7,17.2 C133.3,17.2 136.3,22.3 136.3,27.9 L136.3,28 C136.3,28.6 136.2,28.9 136.2,29.4 Z M126.7,21.7 C124.4,21.7 122.9,23.4 122.4,25.9 L130.8,25.9 C130.5,23.4 129,21.7 126.7,21.7 Z" id="Shape" fill="#0B2A5C"></path>
                <path d="M148.3,37.8 C142.4,37.8 138,33.2 138,27.6 L138,27.5 C138,21.9 142.3,17.2 148.3,17.2 C152,17.2 154.3,18.4 156.2,20.5 L152.8,24.2 C151.6,22.9 150.3,22 148.3,22 C145.5,22 143.5,24.5 143.5,27.4 L143.5,27.5 C143.5,30.5 145.4,32.9 148.5,32.9 C150.4,32.9 151.7,32.1 153,30.8 L156.3,34.1 C154.5,36.3 152.3,37.8 148.3,37.8 Z" id="Shape" fill="#0B2A5C"></path>
                <polygon id="Shape" fill="#0B2A5C" points="171.3 37.3 166.2 29.3 164.3 31.4 164.3 37.4 158.7 37.4 158.7 10.6 164.3 10.6 164.3 24.9 170.8 17.7 177.5 17.7 170 25.5 177.8 37.4 171.3 37.4"></polygon>
            </g>
        </g>
    </g>
</svg>