<?xml version="1.0" encoding="UTF-8"?>
<svg width="48px" height="48px" viewBox="0 0 48 48" version="1.1" xmlns="http://www.w3.org/2000/svg" xmlns:xlink="http://www.w3.org/1999/xlink">
    <!-- Generator: Sketch 61.2 (89653) - https://sketch.com -->
    <title>menu-icon-hr</title>
    <desc>Created with Sketch.</desc>
    <defs>
        <polygon id="path-1" points="21.1145354 0.319343379 0.267518855 0.319343379 0.267518855 15.5889512 21.1145354 15.5889512 21.1145354 0.319343379"></polygon>
    </defs>
    <g id="Assets" stroke="none" stroke-width="1" fill="none" fill-rule="evenodd">
        <g id="Menu---for-facilities" transform="translate(-33.000000, -52.000000)">
            <g id="Group" transform="translate(9.000000, 4.000000)">
                <g id="Group-44" transform="translate(18.000000, 29.000000)">
                    <g id="Group-4" transform="translate(6.000000, 18.000000)">
                        <g id="icon-/-rounded" transform="translate(0.000000, 1.000000)">
                            <g id="Group-6">
                                <g id="icon-bg-/-HR" fill="#E8F1FF">
                                    <circle id="Oval-3" cx="24" cy="24" r="24"></circle>
                                </g>
                                <g id="icon-/-product-/-hr" transform="translate(6.361446, 5.783133)">
                                    <g id="Group" transform="translate(6.939759, 4.626506)">
                                        <g id="Page-1">
                                            <path d="M1.74909338,16.0238984 C1.74909338,14.9011544 2.12188174,13.0705725 2.44924424,11.9953697 C3.83374566,12.5274486 5.06073783,13.517173 6.51387181,13.517173 C10.5809682,13.517173 14.4115538,11.4119077 16.8665256,7.85687159 C19.1165873,9.82479516 20.4448002,12.8352668 20.4448002,16.0238984 C20.4448002,21.9641655 16.0765105,27.1749851 11.0969468,27.1749851 C6.11738299,27.1749851 1.74909338,21.9641655 1.74909338,16.0238984" id="Fill-8" fill="#9CC2FF"></path>
                                            <g id="Group-12" transform="translate(0.493759, 0.160920)">
                                                <mask id="mask-2" fill="white">
                                                    <use xlink:href="#path-1"></use>
                                                </mask>
                                                <g id="Clip-11"></g>
                                                <path d="M21.1145354,12.0619276 L20.6202823,17.1306033 L19.8929746,17.1896699 L19.625357,13.2110835 L15.5982552,10.1391443 C14.4848277,13.0103534 11.1958962,15.0555917 7.92918382,15.0555917 C5.70924145,15.0555917 3.15946779,14.1110076 1.75669727,12.5935263 L1.75669727,13.2110835 L1.75669727,17.1306033 L1.25553146,17.1306033 L0.267518855,10.9761601 C0.267518855,8.70762157 1.00223288,6.92073929 2.24206279,5.54492157 C4.18006852,3.38779306 7.0507858,1.82757255 9.94619106,1.92409588 C12.2258783,1.9985293 13.9481112,2.70876819 16.6474939,1.92409588 C16.8568479,2.28617845 16.9886817,2.79904872 16.89783,3.52897645 C16.8568479,4.07402116 16.7734026,4.2843556 16.6474939,4.58929251 C19.245656,6.47846071 21.1145354,8.61830146 21.1145354,12.0619276" id="Fill-10" fill="#3C6CB7" mask="url(#mask-2)"></path>
                                            </g>
                                            <path d="M19.8236014,19.9066337 C20.8600025,19.9949934 21.9467669,19.2631448 22.0376187,18.2566129 C22.0830445,17.7538272 21.9141788,17.2764928 21.6021229,16.9153707 C21.2905607,16.5547288 20.8422271,16.3098188 20.3237797,16.265639 L19.8236014,19.9066337 Z" id="Fill-13" fill="#568ADC"></path>
                                            <path d="M2.4220381,19.945147 C1.38316827,20.0022927 0.490944994,19.2286653 0.432187623,18.2197323 C0.402562057,17.7155059 0.587228081,17.2439342 0.910146744,16.8924164 C1.23306541,16.5408986 1.68929911,16.3099149 2.20873403,16.2815821 L2.4220381,19.945147 Z" id="Fill-15" fill="#568ADC"></path>
                                        </g>
                                    </g>
                                </g>
                            </g>
                        </g>
                    </g>
                </g>
            </g>
        </g>
    </g>
</svg>