<?xml version="1.0" encoding="UTF-8"?>
<svg width="48px" height="48px" viewBox="0 0 48 48" version="1.1" xmlns="http://www.w3.org/2000/svg" xmlns:xlink="http://www.w3.org/1999/xlink">
    <!-- Generator: Sketch 61.2 (89653) - https://sketch.com -->
    <title>menu-icon-cred</title>
    <desc>Created with Sketch.</desc>
    <defs>
        <polygon id="path-1" points="22.3942775 6.69238071 22.3942775 0.0108541594 0.197718443 0.0108541594 0.197718443 6.69238071"></polygon>
    </defs>
    <g id="Assets" stroke="none" stroke-width="1" fill="none" fill-rule="evenodd">
        <g id="Menu---for-facilities" transform="translate(-33.000000, -138.000000)">
            <g id="Group" transform="translate(9.000000, 4.000000)">
                <g id="Group-44" transform="translate(18.000000, 115.000000)">
                    <g id="Group-4" transform="translate(6.000000, 18.000000)">
                        <g id="icon-/-rounded" transform="translate(0.000000, 1.000000)">
                            <g id="Group-6">
                                <g id="icon-bg-/-Cred" fill="#F7F2FF">
                                    <circle id="Oval-3" cx="24" cy="24" r="24"></circle>
                                </g>
                                <g id="icon-/-product-/-credentialing" transform="translate(6.361446, 5.783133)">
                                    <g id="Group-25" transform="translate(5.783133, 5.204819)">
                                        <g id="Group-12">
                                            <g id="Group-5">
                                                <g id="Group-3" transform="translate(0.830837, 7.829924)">
                                                    <mask id="mask-2" fill="white">
                                                        <use xlink:href="#path-1"></use>
                                                    </mask>
                                                    <g id="Clip-2"></g>
                                                    <path d="M2.63601743,6.69238071 L19.9558539,6.69238071 C21.2971365,6.69238071 22.3944645,5.69685077 22.3944645,4.48028041 L22.3944645,2.22295445 C22.3944645,1.00638409 21.2971365,0.0108541594 19.9558539,0.0108541594 L2.63601743,0.0108541594 C1.29504645,0.0108541594 0.197718443,1.00638409 0.197718443,2.22295445 L0.197718443,4.48028041 C0.197718443,5.69685077 1.29504645,6.69238071 2.63601743,6.69238071" id="Fill-1" fill="#6A5297" mask="url(#mask-2)"></path>
                                                </g>
                                                <polygon id="Fill-4" fill="#FFFFFF" transform="translate(11.673046, 11.185137) rotate(-2.000000) translate(-11.673046, -11.185137) " points="22.7921377 20.2715384 2.64828612 21.868287 0.553953668 2.09873596 20.6974937 0.501987354"></polygon>
                                                <ellipse id="Oval-3" fill="#F0E7FF" opacity="0.216243004" cx="11.0389302" cy="7.8844753" rx="3.65474942" ry="3.32293803"></ellipse>
                                                <g id="Group-4" transform="translate(6.228399, 2.346995)" fill="#8B6FC0">
                                                    <polygon id="Fill-6" points="3.96464949 7.89048564 0.0436063907 4.09337239 1.56258065 2.80060522 4.04805764 5.20736923 10.0680626 -2.31325301e-16 11.5044886 1.36888118"></polygon>
                                                </g>
                                                <path d="M1.77141725,24.4284491 L22.4823151,24.4284491 C22.8907754,24.4284491 23.2250834,24.1251545 23.2250834,23.7545867 L23.2250834,11.3695386 C23.2250834,10.9989708 22.8907754,10.6956762 22.4823151,10.6956762 L1.77141725,10.6956762 C1.362957,10.6956762 1.02864895,10.9989708 1.02864895,11.3695386 L1.02864895,23.7545867 C1.02864895,24.1251545 1.362957,24.4284491 1.77141725,24.4284491" id="Fill-8" fill="#6A5297"></path>
                                                <path d="M12.2418021,24.4284491 L22.482284,24.4284491 C22.8907442,24.4284491 23.2250523,24.1251545 23.2250523,23.7545867 L23.2250523,11.3695386 C23.2250523,10.9989708 22.8907442,10.6956762 22.482284,10.6956762 L12.2418021,10.6956762 C11.8333418,10.6956762 11.4990338,10.9989708 11.4990338,11.3695386 L11.4990338,23.7545867 C11.4990338,24.1251545 11.8333418,24.4284491 12.2418021,24.4284491" id="Fill-10" fill="#8B6FC0"></path>
                                                <path d="M10.8075472,12.0496478 C10.8075472,12.3959946 11.1170843,12.6768163 11.4988469,12.6768163 C11.8806094,12.6768163 12.1901465,12.3959946 12.1901465,12.0496478 C12.1901465,11.703301 11.8806094,11.4224793 11.4988469,11.4224793 C11.1170843,11.4224793 10.8075472,11.703301 10.8075472,12.0496478" id="Fill-15" fill="#FEFEFE"></path>
                                                <path d="M3.10478607,25.9201894 L21.1490086,25.9201894 C22.2908903,25.9201894 23.2252704,25.0724908 23.2252704,24.0365405 L23.2252704,24.0365405 C23.2252704,23.0005901 22.2908903,22.1528915 21.1490086,22.1528915 L3.10478607,22.1528915 C1.96290442,22.1528915 1.02852432,23.0005901 1.02852432,24.0365405 L1.02852432,24.0365405 C1.02852432,25.0724908 1.96290442,25.9201894 3.10478607,25.9201894" id="Fill-12" fill="#AC8BE9"></path>
                                            </g>
                                        </g>
                                    </g>
                                </g>
                            </g>
                        </g>
                    </g>
                </g>
            </g>
        </g>
    </g>
</svg>