<?xml version="1.0" encoding="UTF-8"?>
<svg width="27px" height="31px" viewBox="0 0 27 31" version="1.1" xmlns="http://www.w3.org/2000/svg" xmlns:xlink="http://www.w3.org/1999/xlink">
    <!-- Generator: Sketch 61.2 (89653) - https://sketch.com -->
    <title>product-icon-hr</title>
    <desc>Created with Sketch.</desc>
    <defs>
        <polygon id="path-1" points="25.3218337 0.382975982 0.320824864 0.382975982 0.320824864 18.6952173 25.3218337 18.6952173 25.3218337 0.382975982"></polygon>
    </defs>
    <g id="Assets" stroke="none" stroke-width="1" fill="none" fill-rule="evenodd">
        <g id="Menu---use-cases" transform="translate(-331.000000, -123.000000)">
            <g id="Group-20" transform="translate(47.000000, 115.000000)">
                <g id="icon-/-product-/-hr" transform="translate(276.000000, 0.000000)">
                    <g id="Group" transform="translate(8.322581, 5.548387)">
                        <g id="Page-1">
                            <path d="M2.09761904,19.2168325 C2.09761904,17.8703696 2.5446895,15.6750246 2.93728249,14.3855761 C4.59766071,15.0236774 6.06914426,16.210615 7.81183081,16.210615 C12.6893399,16.210615 17.2832108,13.6858531 20.2273622,9.42243774 C22.9257729,11.7824912 24.5186464,15.3928317 24.5186464,19.2168325 C24.5186464,26.3407617 19.2799281,32.5898931 13.3081327,32.5898931 C7.33633733,32.5898931 2.09761904,26.3407617 2.09761904,19.2168325" id="Fill-8" fill="#9CC2FF"></path>
                            <g id="Group-12" transform="translate(0.592146, 0.192985)">
                                <mask id="mask-2" fill="white">
                                    <use xlink:href="#path-1"></use>
                                </mask>
                                <g id="Clip-11"></g>
                                <path d="M25.3218337,14.4653964 L24.7290952,20.5440602 L23.8568637,20.6148964 L23.5359204,15.843534 L18.7063752,12.1594778 C17.3710853,15.6028062 13.4267989,18.0555802 9.50915895,18.0555802 C6.8468692,18.0555802 3.78902572,16.9227776 2.1067381,15.1029218 L2.1067381,15.843534 L2.1067381,20.5440602 L1.5057096,20.5440602 L0.320824864,13.163278 C0.320824864,10.4427088 1.20193855,8.29977101 2.6888179,6.64980682 C5.01299212,4.06284725 8.45573069,2.19173603 11.9280766,2.30749268 C14.662016,2.39675776 16.7274223,3.24851938 19.9646861,2.30749268 C20.2157561,2.74172409 20.3738592,3.35678928 20.2649043,4.23216295 C20.2157561,4.88581369 20.1156834,5.13805952 19.9646861,5.50375839 C23.0805599,7.76936367 25.3218337,10.3355907 25.3218337,14.4653964" id="Fill-10" fill="#3C6CB7" mask="url(#mask-2)"></path>
                            </g>
                            <path d="M23.7736672,23.8732445 C25.0165822,23.9792108 26.3198962,23.1015335 26.4288512,21.8944393 C26.4833286,21.2914681 26.2808146,20.7190198 25.9065781,20.2859402 C25.5329338,19.8534365 24.995265,19.5597256 24.3735114,19.5067424 L23.7736672,23.8732445 Z" id="Fill-13" fill="#568ADC"></path>
                            <path d="M2.90465523,23.919432 C1.65877942,23.9879646 0.588771063,23.0601837 0.518305654,21.8502099 C0.482776876,21.245511 0.704239591,20.6799735 1.09150327,20.258412 C1.47876695,19.8368505 2.02591013,19.5598408 2.64884803,19.5258625 L2.90465523,23.919432 Z" id="Fill-15" fill="#568ADC"></path>
                        </g>
                    </g>
                </g>
            </g>
        </g>
    </g>
</svg>