<?xml version="1.0" encoding="UTF-8"?>
<svg width="10px" height="19px" viewBox="0 0 10 19" version="1.1" xmlns="http://www.w3.org/2000/svg" xmlns:xlink="http://www.w3.org/1999/xlink">
    <!-- Generator: Sketch 61.2 (89653) - https://sketch.com -->
    <title>social-facebook</title>
    <desc>Created with Sketch.</desc>
    <g id="Symbols" stroke="none" stroke-width="1" fill="none" fill-rule="evenodd">
        <g id="footer" transform="translate(-1177.000000, -386.000000)" fill="#FFFFFF" fill-rule="nonzero">
            <g id="Group-9">
                <g id="Group-15" transform="translate(1133.000000, 385.000000)">
                    <path d="M50.4707595,19.65 L50.4707595,11.13 L53.9807595,11.13 L53.9807595,7.62 L50.4707595,7.62 L50.4707595,5.82 C50.4707595,5.52 50.5457595,5.265 50.6957595,5.055 C50.8457595,4.845 51.0007595,4.74 51.1607595,4.74 L51.1607595,4.74 L53.9807595,4.74 L53.9807595,1.29 L51.1607595,1.29 C50.5807595,1.29 50.0357595,1.41 49.5257595,1.65 C49.0157595,1.89 48.5707595,2.215 48.1907595,2.625 C47.8107595,3.035 47.5107595,3.52 47.2907595,4.08 C47.0707595,4.64 46.9607595,5.24 46.9607595,5.88 L46.9607595,5.88 L46.9607595,7.62 L44.1407595,7.62 L44.1407595,11.13 L46.9607595,11.13 L46.9607595,19.65 L50.4707595,19.65 Z" id="social-facebook"></path>
                </g>
            </g>
        </g>
    </g>
</svg>