<?xml version="1.0" encoding="UTF-8"?>
<svg width="17px" height="17px" viewBox="0 0 17 17" version="1.1" xmlns="http://www.w3.org/2000/svg" xmlns:xlink="http://www.w3.org/1999/xlink">
    <!-- Generator: Sketch 61.2 (89653) - https://sketch.com -->
    <title>social-insta</title>
    <desc>Created with Sketch.</desc>
    <g id="Symbols" stroke="none" stroke-width="1" fill="none" fill-rule="evenodd">
        <g id="footer" transform="translate(-1133.000000, -387.000000)" fill="#FFFFFF" fill-rule="nonzero">
            <g id="Group-9">
                <g id="Group-15" transform="translate(1133.000000, 385.000000)">
                    <path d="M14.638481,18.36 C15.748481,18.36 16.648481,17.46 16.648481,16.32 L16.648481,4.62 C16.648481,3.51 15.748481,2.61 14.638481,2.61 L2.93848101,2.61 C1.79848101,2.61 0.898481013,3.51 0.898481013,4.62 L0.898481013,16.32 C0.898481013,17.46 1.79848101,18.36 2.93848101,18.36 L14.638481,18.36 Z M14.158481,7.47 L12.358481,7.47 C12.028481,7.47 11.668481,7.11 11.668481,6.78 L11.668481,5.04 C11.668481,4.68 12.028481,4.32 12.358481,4.32 L14.158481,4.32 C14.548481,4.32 14.878481,4.68 14.878481,5.04 L14.878481,6.78 C14.878481,7.11 14.548481,7.47 14.158481,7.47 Z M8.78848101,13.5 C7.04848101,13.5 5.63848101,12.12 5.63848101,10.47 C5.63848101,8.73 7.04848101,7.38 8.78848101,7.38 C10.558481,7.38 11.968481,8.73 11.968481,10.47 C11.968481,12.12 10.558481,13.5 8.78848101,13.5 Z M14.248481,16.53 L3.29848101,16.53 C2.93848101,16.53 2.63848101,16.26 2.63848101,15.9 L2.63848101,9.27 L4.13848101,9.27 C3.95848101,9.69 3.89848101,10.11 3.89848101,10.62 C3.89848101,13.26 6.08848101,15.36 8.78848101,15.36 C11.518481,15.36 13.678481,13.26 13.678481,10.62 C13.678481,10.11 13.648481,9.69 13.468481,9.27 L14.878481,9.27 L14.878481,15.9 C14.878481,16.26 14.578481,16.53 14.248481,16.53 Z" id="social-insta"></path>
                </g>
            </g>
        </g>
    </g>
</svg>