<?xml version="1.0" encoding="UTF-8"?>
<svg width="16px" height="18px" viewBox="0 0 16 18" version="1.1" xmlns="http://www.w3.org/2000/svg" xmlns:xlink="http://www.w3.org/1999/xlink">
    <!-- Generator: Sketch 61.2 (89653) - https://sketch.com -->
    <title>social-linkedin</title>
    <desc>Created with Sketch.</desc>
    <g id="Symbols" stroke="none" stroke-width="1" fill="none" fill-rule="evenodd">
        <g id="footer" transform="translate(-1273.000000, -385.000000)" fill="#FFFFFF" fill-rule="nonzero">
            <g id="Group-9">
                <g id="Group-15" transform="translate(1133.000000, 385.000000)">
                    <path d="M142.39,4.86 C142.97,4.86 143.46,4.66 143.86,4.26 C144.26,3.86 144.46,3.37 144.46,2.79 C144.46,2.21 144.26,1.715 143.86,1.305 C143.46,0.895 142.97,0.69 142.39,0.69 C141.81,0.69 141.325,0.895 140.935,1.305 C140.545,1.715 140.35,2.21 140.35,2.79 C140.35,3.37 140.545,3.86 140.935,4.26 C141.325,4.66 141.81,4.86 142.39,4.86 Z M149.05,17.7 L149.05,10.26 C149.31,10.02 149.59,9.83 149.89,9.69 C150.15,9.57 150.44,9.49 150.76,9.45 C151.08,9.41 151.41,9.48 151.75,9.66 C151.89,9.7 152.02,9.83 152.14,10.05 C152.26,10.27 152.32,10.46 152.32,10.62 L152.32,10.62 L152.32,17.7 L155.62,17.7 L155.62,10.62 C155.62,9.86 155.415,9.12 155.005,8.4 C154.595,7.68 154.05,7.13 153.37,6.75 C152.73,6.43 152.01,6.25 151.21,6.21 C150.41,6.17 149.69,6.31 149.05,6.63 L149.05,6.63 L149.05,6.09 L145.69,6.09 L145.69,17.7 L149.05,17.7 Z M144.07,17.7 L144.07,6.09 L140.71,6.09 L140.71,17.7 L144.07,17.7 Z" id="social-linkedin"></path>
                </g>
            </g>
        </g>
    </g>
</svg>