<?xml version="1.0" encoding="UTF-8"?>
<svg width="114px" height="20px" viewBox="0 0 114 20" version="1.1" xmlns="http://www.w3.org/2000/svg" xmlns:xlink="http://www.w3.org/1999/xlink">
    <!-- Generator: Sketch 61.2 (89653) - https://sketch.com -->
    <title>Untitled-8</title>
    <desc>Created with Sketch.</desc>
    <g id="Symbols" stroke="none" stroke-width="1" fill="none" fill-rule="evenodd">
        <g id="footer" transform="translate(-156.000000, -103.000000)" fill="#FFFFFF" fill-rule="nonzero">
            <g id="Group-9">
                <g id="Untitled-8" transform="translate(156.000000, 103.000000)">
                    <path d="M109.348018,15.902965 C107.603524,17.6819407 104.748899,17.6819407 103.004405,15.902965 C101.259912,14.1239892 101.259912,11.212938 103.004405,9.43396226 C103.85022,8.57142857 105.013216,8.08625337 106.229075,8.08625337 L108.713656,8.08625337 L105.488987,11.3746631 L107.444934,13.3692722 L114,6.68463612 L107.444934,0 L105.488987,1.99460916 L108.713656,5.28301887 L106.281938,5.28301887 C106.281938,5.28301887 106.229075,5.28301887 106.229075,5.28301887 C104.325991,5.28301887 102.475771,6.03773585 101.101322,7.4393531 C98.2995595,10.296496 98.2995595,14.9865229 101.101322,17.8436658 C102.528634,19.2991914 104.378855,20 106.229075,20 C108.079295,20 109.929515,19.2991914 111.356828,17.8436658 C112.731278,16.4420485 113.471366,14.6091644 113.471366,12.6145553 L110.722467,12.6145553 C110.669604,13.9083558 110.193833,15.0404313 109.348018,15.902965 Z" id="Shape"></path>
                    <path d="M9.94818653,15.5145631 L2.84974093,15.5145631 C3.16062176,16.8495146 4.04145078,17.5970874 5.33678756,17.5970874 C6.32124352,17.5970874 6.99481865,17.276699 7.8238342,16.5291262 L9.48186528,18.0242718 C8.5492228,19.2524272 7.15025907,20 5.33678756,20 C2.27979275,20 0,17.7572816 0,14.5533981 L0,14.5 C0,11.5097087 2.07253886,9 5.02590674,9 C8.44559585,9 10,11.723301 10,14.7135922 L10,14.7669903 C10,15.0873786 9.94818653,15.2475728 9.94818653,15.5145631 Z M5.02590674,11.4029126 C3.83419689,11.4029126 3.05699482,12.3106796 2.79792746,13.6456311 L7.15025907,13.6456311 C6.99481865,12.3106796 6.21761658,11.4029126 5.02590674,11.4029126 Z" id="Shape"></path>
                    <polygon id="Shape" points="16.9219512 19 14.1853659 19 10 9 13.1658537 9 15.5268293 15.6666667 17.8878049 9 21 9"></polygon>
                    <path d="M30.9481865,15.5145631 L23.8497409,15.5145631 C24.1606218,16.8495146 25.0414508,17.5970874 26.3367876,17.5970874 C27.3212435,17.5970874 27.9948187,17.276699 28.8238342,16.5291262 L30.4818653,18.0242718 C29.5492228,19.2524272 28.1502591,20 26.3367876,20 C23.2797927,20 21,17.7572816 21,14.5533981 L21,14.5 C21,11.5097087 23.0725389,9 26.0259067,9 C29.4455959,9 31,11.723301 31,14.7135922 L31,14.7669903 C31,15.0873786 31,15.2475728 30.9481865,15.5145631 Z M26.0259067,11.4029126 C24.8341969,11.4029126 24.0569948,12.3106796 23.7979275,13.6456311 L28.1502591,13.6456311 C27.9948187,12.3106796 27.2694301,11.4029126 26.0259067,11.4029126 Z" id="Shape"></path>
                    <path d="M38.8487395,12.1959079 C36.9831933,12.1959079 35.8235294,13.4049926 35.8235294,15.9880371 L35.8235294,20 L33,20 L33,9.17319612 L35.8235294,9.17319612 L35.8235294,11.3715319 C36.3781513,9.88765526 37.3361345,8.89840414 39,9.00832093 L39,12.1959079 L38.8487395,12.1959079 Z" id="Shape"></path>
                    <path d="M45.6284153,20 C42.4043716,20 40,17.5436893 40,14.5533981 L40,14.5 C40,11.5097087 42.3497268,9 45.6284153,9 C47.6502732,9 48.9071038,9.6407767 49.9453552,10.7621359 L48.0874317,12.7378641 C47.431694,12.0436893 46.7213115,11.5631068 45.6284153,11.5631068 C44.0983607,11.5631068 43.0054645,12.8980583 43.0054645,14.4466019 L43.0054645,14.5 C43.0054645,16.1019417 44.0437158,17.3834951 45.7377049,17.3834951 C46.7759563,17.3834951 47.4863388,16.9563107 48.1967213,16.2621359 L50,18.0242718 C48.9617486,19.1990291 47.7595628,20 45.6284153,20 Z" id="Shape"></path>
                    <path d="M56.2154696,20 L56.2154696,14.2537313 C56.2154696,12.8955224 55.5690608,12.1641791 54.5248619,12.1641791 C53.480663,12.1641791 52.7845304,12.8955224 52.7845304,14.2537313 L52.7845304,20 L50,20 L50,6 L52.7845304,6 L52.7845304,11.1716418 C53.4309392,10.2835821 54.2265193,9.5 55.6685083,9.5 C57.7569061,9.5 59,10.9626866 59,13.3134328 L59,20 L56.2154696,20 Z" id="Shape"></path>
                    <path d="M70.9481865,15.5145631 L63.8497409,15.5145631 C64.1606218,16.8495146 65.0414508,17.5970874 66.3367876,17.5970874 C67.3212435,17.5970874 67.9948187,17.276699 68.8238342,16.5291262 L70.4818653,18.0242718 C69.5492228,19.2524272 68.1502591,20 66.3367876,20 C63.2797927,20 61,17.7572816 61,14.5533981 L61,14.5 C61,11.5097087 63.0725389,9 66.0259067,9 C69.4455959,9 71,11.723301 71,14.7135922 L71,14.7669903 C71,15.0873786 70.9481865,15.2475728 70.9481865,15.5145631 Z M66.0259067,11.4029126 C64.8341969,11.4029126 64.0569948,12.3106796 63.7979275,13.6456311 L68.1502591,13.6456311 C67.9948187,12.3106796 67.2176166,11.4029126 66.0259067,11.4029126 Z" id="Shape"></path>
                    <path d="M77.6284153,20 C74.4043716,20 72,17.5436893 72,14.5533981 L72,14.5 C72,11.5097087 74.3497268,9 77.6284153,9 C79.6502732,9 80.9071038,9.6407767 81.9453552,10.7621359 L80.0874317,12.7378641 C79.431694,12.0436893 78.7213115,11.5631068 77.6284153,11.5631068 C76.0983607,11.5631068 75.0054645,12.8980583 75.0054645,14.4466019 L75.0054645,14.5 C75.0054645,16.1019417 76.0437158,17.3834951 77.7377049,17.3834951 C78.7759563,17.3834951 79.4863388,16.9563107 80.1967213,16.2621359 L82,18.0242718 C81.0163934,19.1990291 79.8142077,20 77.6284153,20 Z" id="Shape"></path>
                    <polygon id="Shape" points="89.5968586 19.9477612 86.9267016 15.7686567 85.9319372 16.8656716 85.9319372 20 83 20 83 6 85.9319372 6 85.9319372 13.4701493 89.3350785 9.70895522 92.8429319 9.70895522 88.9162304 13.7835821 93 20 89.5968586 20"></polygon>
                </g>
            </g>
        </g>
    </g>
</svg>