<?xml version="1.0" encoding="UTF-8"?>
<svg width="48px" height="48px" viewBox="0 0 48 48" version="1.1" xmlns="http://www.w3.org/2000/svg" xmlns:xlink="http://www.w3.org/1999/xlink">
    <!-- Generator: Sketch 61.2 (89653) - https://sketch.com -->
    <title>menu-icon-wallet</title>
    <desc>Created with Sketch.</desc>
    <g id="Assets" stroke="none" stroke-width="1" fill="none" fill-rule="evenodd">
        <g id="Menu---solutions" transform="translate(-33.000000, -318.000000)">
            <g id="Group" transform="translate(9.000000, 4.000000)">
                <g id="Group-44" transform="translate(18.000000, 295.000000)">
                    <g id="Group-4" transform="translate(6.000000, 18.000000)">
                        <g id="icon-/-rounded" transform="translate(0.000000, 1.000000)">
                            <g id="Group-6">
                                <g id="icon-bg-/-primary" fill="#D7FFEE">
                                    <circle id="Oval-3" cx="24" cy="24" r="24"></circle>
                                </g>
                                <g id="icon-/-product-/-wallet" transform="translate(6.361446, 5.783133)">
                                    <g id="Group-5" transform="translate(2.891566, 6.361446)">
                                        <g id="Group-4">
                                            <path d="M27.2895759,10.516935 L30.0591813,10.516935 C30.3831294,10.516935 30.6457413,10.7795469 30.6457413,11.103495 L30.6457413,18.7689829 C30.6457413,19.092931 30.3831294,19.3555429 30.0591813,19.3555429 L27.2895759,19.3555429 C26.9656277,19.3555429 26.7030159,19.092931 26.7030159,18.7689829 L26.7030159,11.103495 C26.7030159,10.7795469 26.9656277,10.516935 27.2895759,10.516935 Z" id="Rectangle-3" fill="#74F1BD"></path>
                                            <path d="M27.2895759,15.6648673 L30.0591813,15.6648673 C30.3831294,15.6648673 30.6457413,15.9274792 30.6457413,16.2514273 L30.6457413,19.507118 C30.6457413,19.8310661 30.3831294,20.093678 30.0591813,20.093678 L27.2895759,20.093678 C26.9656277,20.093678 26.7030159,19.8310661 26.7030159,19.507118 L26.7030159,16.2514273 C26.7030159,15.9274792 26.9656277,15.6648673 27.2895759,15.6648673 Z" id="Rectangle-3" fill="#22A46E"></path>
                                            <polygon id="Rectangle-2" fill="#22A46E" points="22.2898789 0 26.4217957 10.6560441 4.31911793 18.2073327 0.187201124 7.55128862"></polygon>
                                            <path d="M4.18720112,5.49500582 L25.1357613,5.49500582 C27.3449003,5.49500582 29.1357613,7.28586682 29.1357613,9.49500582 L29.1357613,19.7023385 C29.1357613,21.9114775 27.3449003,23.7023385 25.1357613,23.7023385 L4.18720112,23.7023385 C1.97806212,23.7023385 0.187201124,21.9114775 0.187201124,19.7023385 L0.187201124,9.49500582 C0.187201124,7.28586682 1.97806212,5.49500582 4.18720112,5.49500582 Z" id="Rectangle" fill="#33DB95"></path>
                                            <polygon id="Rectangle-4" fill="#74F1BD" points="22.5925149 10.5504312 29.1357613 10.5504312 29.1357613 15.7468824 22.5925149 15.7468824"></polygon>
                                            <ellipse id="Oval" fill="#FFFFFF" cx="25.8641381" cy="13.368447" rx="1" ry="1"></ellipse>
                                        </g>
                                        <path d="M15.6542511,18.0693446 C14.5786567,19.2507425 12.8296681,19.2507425 11.7549564,18.0693446 C10.6798917,16.8881408 10.6798917,14.9654585 11.7554861,13.7838666 C12.2823367,13.2042287 12.9808022,12.8896679 13.7396506,12.897236 L15.2617615,12.897236 L13.2572928,15.0999376 L14.4566547,16.4183372 L18.5060241,11.9681077 L14.4566547,7.51807229 L13.2572928,8.83608383 L15.2548757,11.0323816 C15.2548757,11.0323816 15.0138696,11.0323816 13.7475958,11.0323816 C12.4813219,11.0323816 11.3970724,11.5396375 10.5554179,12.4654669 C8.81878847,14.3739833 8.81896503,17.47981 10.5554179,19.3873561 C11.4233796,20.3420995 12.5639475,20.8192771 13.7041624,20.8192771 C14.8445538,20.8192771 15.9852983,20.3420995 16.8539661,19.3873561 C17.6950909,18.4628852 18.1578507,17.2339442 18.1578507,15.9260234 L16.4618297,15.9260234 C16.4618297,16.7356147 16.174569,17.4968867 15.6542511,18.0693446 L16.4618297,15.9260234" id="Logo" fill="#FFFFFF"></path>
                                    </g>
                                </g>
                            </g>
                        </g>
                    </g>
                </g>
            </g>
        </g>
    </g>
</svg>