<?xml version="1.0" encoding="UTF-8"?>
<svg width="34px" height="27px" viewBox="0 0 34 27" version="1.1" xmlns="http://www.w3.org/2000/svg" xmlns:xlink="http://www.w3.org/1999/xlink">
    <!-- Generator: Sketch 61.2 (89653) - https://sketch.com -->
    <title>product-icon-wallet</title>
    <desc>Created with Sketch.</desc>
    <g id="Assets" stroke="none" stroke-width="1" fill="none" fill-rule="evenodd">
        <g id="Menu---use-cases" transform="translate(-236.000000, -124.000000)">
            <g id="Group-20" transform="translate(47.000000, 115.000000)">
                <g id="icon-/-product-/-wallet" transform="translate(186.000000, 3.000000)">
                    <g id="Group-5" transform="translate(3.145161, 6.919355)">
                        <g id="Group-4">
                            <path d="M29.6314734,11.4392872 L32.7468622,11.4392872 C33.0708103,11.4392872 33.3334222,11.701899 33.3334222,12.0258472 L33.3334222,20.4664952 C33.3334222,20.7904434 33.0708103,21.0530552 32.7468622,21.0530552 L29.6314734,21.0530552 C29.3075253,21.0530552 29.0449134,20.7904434 29.0449134,20.4664952 L29.0449134,12.0258472 C29.0449134,11.701899 29.3075253,11.4392872 29.6314734,11.4392872 Z" id="Rectangle-3" fill="#74F1BD"></path>
                            <path d="M29.6314734,17.0387015 L32.7468622,17.0387015 C33.0708103,17.0387015 33.3334222,17.3013133 33.3334222,17.6252615 L33.3334222,21.269366 C33.3334222,21.5933141 33.0708103,21.855926 32.7468622,21.855926 L29.6314734,21.855926 C29.3075253,21.855926 29.0449134,21.5933141 29.0449134,21.269366 L29.0449134,17.6252615 C29.0449134,17.3013133 29.3075253,17.0387015 29.6314734,17.0387015 Z" id="Rectangle-3" fill="#22A46E"></path>
                            <polygon id="Rectangle-2" fill="#22A46E" points="24.2447372 0 28.7390298 11.5905964 4.69791154 19.8041452 0.203618964 8.21354881"></polygon>
                            <path d="M4.20361896,5.97692669 L27.6910146,5.97692669 C29.9001536,5.97692669 31.6910146,7.7677877 31.6910146,9.97692669 L31.6910146,21.7810719 C31.6910146,23.9902109 29.9001536,25.7810719 27.6910146,25.7810719 L4.20361896,25.7810719 C1.99447996,25.7810719 0.203618964,23.9902109 0.203618964,21.7810719 L0.203618964,9.97692669 C0.203618964,7.7677877 1.99447996,5.97692669 4.20361896,5.97692669 Z" id="Rectangle" fill="#33DB95"></path>
                            <polygon id="Rectangle-4" fill="#74F1BD" points="24.5739149 11.475721 31.6910146 11.475721 31.6910146 17.1279093 24.5739149 17.1279093"></polygon>
                            <ellipse id="Oval" fill="#FFFFFF" cx="28.1324647" cy="14.5408814" rx="1.00369355" ry="1"></ellipse>
                        </g>
                        <path d="M17.0271542,19.6540553 C15.8572284,20.9390636 13.9548507,20.9390636 12.7858851,19.6540553 C11.6165354,18.369258 11.6165354,16.2779533 12.7864612,14.9927339 C13.3595174,14.3622608 14.1192395,14.0201126 14.9446402,14.0283444 L16.6002426,14.0283444 L14.4199787,16.4242264 L15.7245267,17.8582519 L20.1290323,13.0177301 L15.7245267,8.17741935 L14.4199787,9.61102263 L16.5927529,11.9999393 C16.5927529,11.9999393 16.3306102,11.9999393 14.9532821,11.9999393 C13.575954,11.9999393 12.396614,12.5516824 11.4811451,13.5587085 C9.59221044,15.6346049 9.59240249,19.0128175 11.4811451,21.0876586 C12.4252284,22.1261344 13.665826,22.6451613 14.9060395,22.6451613 C16.1464451,22.6451613 17.3872347,22.1261344 18.3320862,21.0876586 C19.2469789,20.08211 19.7503235,18.7453889 19.7503235,17.3227614 L17.9055587,17.3227614 C17.9055587,18.2033551 17.5931048,19.0313919 17.0271542,19.6540553 L17.9055587,17.3227614" id="Logo" fill="#FFFFFF"></path>
                    </g>
                </g>
            </g>
        </g>
    </g>
</svg>