<?xml version="1.0" encoding="UTF-8"?>
<svg width="18px" height="15px" viewBox="0 0 18 15" version="1.1" xmlns="http://www.w3.org/2000/svg" xmlns:xlink="http://www.w3.org/1999/xlink">
    <!-- Generator: Sketch 61.2 (89653) - https://sketch.com -->
    <title>social-twitter</title>
    <desc>Created with Sketch.</desc>
    <g id="Symbols" stroke="none" stroke-width="1" fill="none" fill-rule="evenodd">
        <g id="footer" transform="translate(-1220.000000, -388.000000)" fill="#FFFFFF" fill-rule="nonzero">
            <g id="Group-9">
                <g id="Group-15" transform="translate(1133.000000, 385.000000)">
                    <path d="M92.8235443,17.64 C94.4835443,17.64 95.9485443,17.33 97.2185443,16.71 C98.4885443,16.09 99.5585443,15.285 100.428544,14.295 C101.298544,13.305 101.958544,12.195 102.408544,10.965 C102.858544,9.735 103.083544,8.52 103.083544,7.32 L103.083544,7.32 L103.083544,6.9 C103.803544,6.34 104.403544,5.71 104.883544,5.01 C104.563544,5.15 104.233544,5.27 103.893544,5.37 C103.553544,5.47 103.193544,5.54 102.813544,5.58 C103.553544,5.1 104.083544,4.44 104.403544,3.6 C104.063544,3.78 103.693544,3.95 103.293544,4.11 C102.893544,4.27 102.493544,4.38 102.093544,4.44 C101.753544,4.1 101.363544,3.825 100.923544,3.615 C100.483544,3.405 99.9935443,3.3 99.4535443,3.3 C98.9535443,3.3 98.4885443,3.395 98.0585443,3.585 C97.6285443,3.775 97.2485443,4.035 96.9185443,4.365 C96.5885443,4.695 96.3285443,5.085 96.1385443,5.535 C95.9485443,5.985 95.8535443,6.46 95.8535443,6.96 C95.8535443,7.24 95.8835443,7.5 95.9435443,7.74 C94.4435443,7.68 93.0535443,7.315 91.7735443,6.645 C90.4935443,5.975 89.4035443,5.08 88.5035443,3.96 C88.1835443,4.54 88.0235443,5.15 88.0235443,5.79 C88.0235443,6.43 88.1635443,7.01 88.4435443,7.53 C88.7235443,8.05 89.1235443,8.47 89.6435443,8.79 C89.3035443,8.79 88.9985443,8.75 88.7285443,8.67 C88.4585443,8.59 88.2035443,8.49 87.9635443,8.37 L87.9635443,8.37 L87.9635443,8.4 C87.9635443,9.28 88.2385443,10.045 88.7885443,10.695 C89.3385443,11.345 90.0335443,11.76 90.8735443,11.94 C90.7135443,11.98 90.5585443,12.01 90.4085443,12.03 C90.2585443,12.05 90.0935443,12.06 89.9135443,12.06 C89.7135443,12.06 89.4935443,12.03 89.2535443,11.97 C89.4735443,12.69 89.8885443,13.285 90.4985443,13.755 C91.1085443,14.225 91.8135443,14.47 92.6135443,14.49 C91.3535443,15.51 89.8635443,16.02 88.1435443,16.02 L88.1435443,16.02 L87.6935443,16.02 C87.5535443,16.02 87.4135443,16.01 87.2735443,15.99 C88.0935443,16.51 88.9685443,16.915 89.8985443,17.205 C90.8285443,17.495 91.8035443,17.64 92.8235443,17.64 Z" id="social-twitter"></path>
                </g>
            </g>
        </g>
    </g>
</svg>